<?xml version="1.0" encoding="UTF-8" standalone="no"?>
<!-- Created with Inkscape (http://www.inkscape.org/) -->

<svg
   xmlns:dc="http://purl.org/dc/elements/1.1/"
   xmlns:cc="http://creativecommons.org/ns#"
   xmlns:rdf="http://www.w3.org/1999/02/22-rdf-syntax-ns#"
   xmlns:svg="http://www.w3.org/2000/svg"
   xmlns="http://www.w3.org/2000/svg"
   xmlns:sodipodi="http://sodipodi.sourceforge.net/DTD/sodipodi-0.dtd"
   xmlns:inkscape="http://www.inkscape.org/namespaces/inkscape"
   width="750"
   height="750"
   viewBox="0 0 750 750.00003"
   version="1.1"
   id="svg6551"
   inkscape:version="0.92.0 r15299"
   sodipodi:docname="Brasão de Manicoré - AM.svg">
  <defs
     id="defs6545" />
  <sodipodi:namedview
     id="base"
     pagecolor="#ffffff"
     bordercolor="#666666"
     borderopacity="1.0"
     inkscape:pageopacity="0.0"
     inkscape:pageshadow="2"
     inkscape:zoom="0.30759145"
     inkscape:cx="-178.31791"
     inkscape:cy="342.76799"
     inkscape:document-units="px"
     inkscape:current-layer="layer1"
     showgrid="false"
     units="px"
     objecttolerance="1"
     showguides="false"
     inkscape:window-width="1440"
     inkscape:window-height="837"
     inkscape:window-x="-8"
     inkscape:window-y="-8"
     inkscape:window-maximized="1">
    <inkscape:grid
       type="xygrid"
       id="grid7138" />
  </sodipodi:namedview>
  <metadata
     id="metadata6548">
    <rdf:RDF>
      <cc:Work
         rdf:about="">
        <dc:format>image/svg+xml</dc:format>
        <dc:type
           rdf:resource="http://purl.org/dc/dcmitype/StillImage" />
        <dc:title></dc:title>
      </cc:Work>
    </rdf:RDF>
  </metadata>
  <g
     inkscape:label="Capa 1"
     inkscape:groupmode="layer"
     id="layer1"
     transform="translate(0,-372.51966)">
    <g
       id="g10085">
      <circle
         r="374.5"
         cy="747.51965"
         cx="375"
         id="path7131"
         style="opacity:1;vector-effect:none;fill:#e3e4e5;fill-opacity:1;fill-rule:evenodd;stroke:#000000;stroke-width:1;stroke-linecap:butt;stroke-linejoin:miter;stroke-miterlimit:4;stroke-dasharray:none;stroke-dashoffset:0;stroke-opacity:1" />
      <g
         id="g9991">
        <g
           id="g9693"
           transform="matrix(1.0000163,0,0,1.0001404,-0.0061441,-0.11306999)"
           style="stroke-width:0.99992168">
          <path
             sodipodi:nodetypes="ccccc"
             inkscape:connector-curvature="0"
             d="m 505.61332,661.3582 c -8.35617,124.12024 -7.80914,240.24427 43.65064,310.64239 -116.17599,66.66841 -232.35197,66.66831 -348.52795,8e-5 51.45977,-70.39812 52.00681,-186.52215 43.65064,-310.64239 z"
             style="fill:#996532;stroke:#000000;stroke-width:0.99992251px;stroke-linecap:butt;stroke-linejoin:miter;stroke-opacity:1"
             id="path8817-5" />
          <path
             d="m 505.54353,661.3582 a 130.54374,38.287062 0 1 1 -261.08742,0 130.54374,38.287062 0 1 1 261.08742,0 z"
             id="path3843"
             style="display:inline;overflow:visible;visibility:visible;fill:#996532;fill-opacity:1;fill-rule:evenodd;stroke:#000000;stroke-width:0.99992251;stroke-linecap:square;stroke-linejoin:miter;stroke-miterlimit:4;stroke-dasharray:none;stroke-dashoffset:0;stroke-opacity:1;marker:none;marker-start:none;marker-mid:none;marker-end:none;enable-background:accumulate"
             inkscape:connector-curvature="0" />
          <path
             d="m 483.01287,661.35825 a 108.01305,27.176378 0 1 1 -216.02606,0 108.01305,27.176378 0 1 1 216.02606,0 z"
             id="path7060"
             style="display:inline;overflow:visible;visibility:visible;fill:#996532;fill-opacity:1;fill-rule:evenodd;stroke:#000000;stroke-width:0.99992239;stroke-linecap:square;stroke-linejoin:miter;stroke-miterlimit:4;stroke-dasharray:none;stroke-dashoffset:0;stroke-opacity:1;marker:none;marker-start:none;marker-mid:none;marker-end:none;enable-background:accumulate"
             inkscape:connector-curvature="0" />
          <path
             d="m 452.87969,661.35829 a 77.879834,13.405602 0 1 1 -155.75963,0 77.879834,13.405602 0 1 1 155.75963,0 z"
             id="path7140"
             style="display:inline;overflow:visible;visibility:visible;fill:#996532;fill-opacity:1;fill-rule:evenodd;stroke:#000000;stroke-width:0.99992251;stroke-linecap:square;stroke-linejoin:miter;stroke-miterlimit:4;stroke-dasharray:none;stroke-dashoffset:0;stroke-opacity:1;marker:none;marker-start:none;marker-mid:none;marker-end:none;enable-background:accumulate"
             inkscape:connector-curvature="0" />
          <path
             d="m 415.85112,661.35829 a 40.851259,5.6314448 0 1 1 -81.70251,0 40.851259,5.6314448 0 1 1 81.70251,0 z"
             id="path7162"
             style="display:inline;overflow:visible;visibility:visible;fill:#996532;fill-opacity:1;fill-rule:evenodd;stroke:#000000;stroke-width:0.99992239;stroke-linecap:square;stroke-linejoin:miter;stroke-miterlimit:4;stroke-dasharray:none;stroke-dashoffset:0;stroke-opacity:1;marker:none;marker-start:none;marker-mid:none;marker-end:none;enable-background:accumulate"
             inkscape:connector-curvature="0" />
        </g>
        <g
           id="g9677"
           transform="matrix(1.0000223,0,0,0.99995191,-0.00423271,0.0403647)"
           style="stroke-width:1.00001287">
          <path
             id="path4156"
             sodipodi:nodetypes="cccccccc"
             inkscape:connector-curvature="0"
             d="m 325.9414,866.16649 27.60854,14.75313 39.5755,-0.87044 28.19142,-11.42476 -13.74202,-17.21292 -38.96622,-4.91771 -28.34421,6.95613 z"
             style="fill:#828282;fill-opacity:0.67060002;stroke:#000000;stroke-width:1.08710051" />
          <path
             id="path4158"
             sodipodi:nodetypes="ccccccccc"
             inkscape:connector-curvature="0"
             d="m 326.48655,866.7782 14.19663,73.02831 10.6503,11.30094 36.38193,0.87044 25.73539,-15.64945 7.09832,-67.81121 -29.28361,13.04183 h -35.49535 z"
             style="fill:#828282;fill-opacity:0.67060002;stroke:#000000;stroke-width:1.08710051" />
          <path
             id="path4160"
             sodipodi:nodetypes="cccccccc"
             inkscape:connector-curvature="0"
             d="m 341.77726,874.03926 7.78117,-7.26291 16.86015,-3.47807 31.05866,3.47807 8.46214,8.54362 -15.66798,5.42039 -35.49534,0.61356 z"
             style="fill:#e3e4e5;fill-opacity:0.67060002;stroke:#000000;stroke-width:1.08710051" />
          <path
             style="color:#000000;font-style:normal;font-variant:normal;font-weight:normal;font-stretch:normal;font-size:medium;line-height:normal;font-family:sans-serif;font-variant-ligatures:normal;font-variant-position:normal;font-variant-caps:normal;font-variant-numeric:normal;font-variant-alternates:normal;font-feature-settings:normal;text-indent:0;text-align:start;text-decoration:none;text-decoration-line:none;text-decoration-style:solid;text-decoration-color:#000000;letter-spacing:normal;word-spacing:normal;text-transform:none;writing-mode:lr-tb;direction:ltr;text-orientation:mixed;dominant-baseline:auto;baseline-shift:baseline;text-anchor:start;white-space:normal;shape-padding:0;clip-rule:nonzero;display:inline;overflow:visible;visibility:visible;opacity:1;isolation:auto;mix-blend-mode:normal;color-interpolation:sRGB;color-interpolation-filters:linearRGB;solid-color:#000000;solid-opacity:1;vector-effect:none;fill:#e3e4e5;fill-opacity:1;fill-rule:nonzero;stroke:#000000;stroke-width:1.00001276;stroke-linecap:butt;stroke-linejoin:round;stroke-miterlimit:4;stroke-dasharray:none;stroke-dashoffset:0;stroke-opacity:1;color-rendering:auto;image-rendering:auto;shape-rendering:auto;text-rendering:auto;enable-background:accumulate"
             d="m 418.88368,806.00967 -47.86966,17.82736 2.71162,6.99524 47.86966,-17.82738 z"
             id="path4170"
             inkscape:connector-curvature="0" />
          <path
             style="color:#000000;font-style:normal;font-variant:normal;font-weight:normal;font-stretch:normal;font-size:medium;line-height:normal;font-family:sans-serif;font-variant-ligatures:normal;font-variant-position:normal;font-variant-caps:normal;font-variant-numeric:normal;font-variant-alternates:normal;font-feature-settings:normal;text-indent:0;text-align:start;text-decoration:none;text-decoration-line:none;text-decoration-style:solid;text-decoration-color:#000000;letter-spacing:normal;word-spacing:normal;text-transform:none;writing-mode:lr-tb;direction:ltr;text-orientation:mixed;dominant-baseline:auto;baseline-shift:baseline;text-anchor:start;white-space:normal;shape-padding:0;clip-rule:nonzero;display:inline;overflow:visible;visibility:visible;opacity:1;isolation:auto;mix-blend-mode:normal;color-interpolation:sRGB;color-interpolation-filters:linearRGB;solid-color:#000000;solid-opacity:1;vector-effect:none;fill:#000000;fill-opacity:1;fill-rule:nonzero;stroke:#000000;stroke-width:1.00001276;stroke-linecap:butt;stroke-linejoin:round;stroke-miterlimit:4;stroke-dasharray:none;stroke-dashoffset:0;stroke-opacity:1;color-rendering:auto;image-rendering:auto;shape-rendering:auto;text-rendering:auto;enable-background:accumulate"
             d="M 421.30056,733.01453 377.86307,752.625 a 3.8186256,3.7411435 0 0 0 -2.2032,3.03921 l -8.86434,90.92357 7.60063,0.71106 8.65803,-88.77951 41.44063,-18.71171 z"
             id="path4164"
             inkscape:connector-curvature="0" />
          <path
             style="color:#000000;font-style:normal;font-variant:normal;font-weight:normal;font-stretch:normal;font-size:medium;line-height:normal;font-family:sans-serif;font-variant-ligatures:normal;font-variant-position:normal;font-variant-caps:normal;font-variant-numeric:normal;font-variant-alternates:normal;font-feature-settings:normal;text-indent:0;text-align:start;text-decoration:none;text-decoration-line:none;text-decoration-style:solid;text-decoration-color:#000000;letter-spacing:normal;word-spacing:normal;text-transform:none;writing-mode:lr-tb;direction:ltr;text-orientation:mixed;dominant-baseline:auto;baseline-shift:baseline;text-anchor:start;white-space:normal;shape-padding:0;clip-rule:nonzero;display:inline;overflow:visible;visibility:visible;opacity:1;isolation:auto;mix-blend-mode:normal;color-interpolation:sRGB;color-interpolation-filters:linearRGB;solid-color:#000000;solid-opacity:1;vector-effect:none;fill:#000000;fill-opacity:1;fill-rule:nonzero;stroke:#000000;stroke-width:1.00001276;stroke-linecap:butt;stroke-linejoin:round;stroke-miterlimit:4;stroke-dasharray:none;stroke-dashoffset:0;stroke-opacity:1;color-rendering:auto;image-rendering:auto;shape-rendering:auto;text-rendering:auto;enable-background:accumulate"
             d="m 421.30056,760.64895 -46.20438,20.87019 3.19426,6.7931 46.20438,-20.87019 z"
             id="path4166"
             inkscape:connector-curvature="0" />
          <path
             style="color:#000000;font-style:normal;font-variant:normal;font-weight:normal;font-stretch:normal;font-size:medium;line-height:normal;font-family:sans-serif;font-variant-ligatures:normal;font-variant-position:normal;font-variant-caps:normal;font-variant-numeric:normal;font-variant-alternates:normal;font-feature-settings:normal;text-indent:0;text-align:start;text-decoration:none;text-decoration-line:none;text-decoration-style:solid;text-decoration-color:#000000;letter-spacing:normal;word-spacing:normal;text-transform:none;writing-mode:lr-tb;direction:ltr;text-orientation:mixed;dominant-baseline:auto;baseline-shift:baseline;text-anchor:start;white-space:normal;shape-padding:0;clip-rule:nonzero;display:inline;overflow:visible;visibility:visible;opacity:1;isolation:auto;mix-blend-mode:normal;color-interpolation:sRGB;color-interpolation-filters:linearRGB;solid-color:#000000;solid-opacity:1;vector-effect:none;fill:#000000;fill-opacity:1;fill-rule:nonzero;stroke:#000000;stroke-width:1.00001276;stroke-linecap:butt;stroke-linejoin:round;stroke-miterlimit:4;stroke-dasharray:none;stroke-dashoffset:0;stroke-opacity:1;color-rendering:auto;image-rendering:auto;shape-rendering:auto;text-rendering:auto;enable-background:accumulate"
             d="m 418.79525,785.54013 -45.32016,18.14502 2.88847,6.92303 45.32016,-18.14141 z"
             id="path4168"
             inkscape:connector-curvature="0" />
        </g>
        <g
           id="g9686"
           transform="matrix(1.0001007,0,0,1.0256677,-0.04263815,-22.160446)"
           style="stroke-width:0.98735839">
          <path
             style="display:inline;fill:#008f4c;fill-rule:evenodd;stroke:#000000;stroke-width:0.98735851;stroke-linecap:butt;stroke-linejoin:miter;stroke-miterlimit:4;stroke-dasharray:none;stroke-opacity:1"
             d="m 377.99315,667.04664 c 0.38267,-41.47989 -2.02485,-63.21349 -1.58293,-84.70977 8.16418,-5.9631 20.43392,-15.13519 29.62884,-21.79358 0,0 -1.02802,-0.82436 -1.62603,-3.12102 0,0 -14.24884,7.23997 -28.14374,17.41752 0.64546,-30.08698 2.07269,-41.68638 2.07269,-41.68638 l -6.70803,-0.41252 c -0.34992,13.42434 -0.60586,28.61885 -0.82781,44.71513 -17.81467,-9.86149 -29.16335,-16.31654 -29.16335,-16.31654 -0.2547,2.34644 -1.20393,3.28632 -1.20393,3.28632 11.15825,6.11351 20.19927,11.25614 30.2852,16.81254 -0.37617,28.66777 -0.73246,55.02141 -0.82417,85.71947 z"
             id="use4508"
             sodipodi:nodetypes="ccccccccccccc"
             inkscape:connector-curvature="0" />
          <path
             inkscape:connector-curvature="0"
             d="m 320.04311,582.37568 c -9.64549,-1.06925 -11.63861,-3.17292 -16.47166,-9.26941 -8.24737,-2.32489 -7.25622,-14.1421 -8.64074,-17.42353 -7.83363,-6.37226 -7.38859,-16.45669 -6.36816,-18.18951 0.26955,-1.45002 6.84779,-7.72649 14.99096,-6.55269 5.37109,-4.46016 16.46862,-4.02032 19.50167,-1.5839 11.99683,-3.20848 14.00989,-0.2231 20.17558,4.41721 15.44328,9.17115 8.207,25.63628 0.0234,31.55378 -2.50589,12.56642 -10.98001,25.79945 -23.21103,17.04805 z"
             id="path8775"
             style="fill:#008f4c;fill-opacity:1;fill-rule:evenodd;stroke:#000000;stroke-width:0.98735827;stroke-linecap:butt;stroke-miterlimit:4;stroke-dasharray:none" />
          <path
             inkscape:connector-curvature="0"
             d="m 344.41615,564.23501 c -4.99206,1.79762 -11.057,-1.46057 -15.26459,-5.07155 -6.60361,-0.44699 -20.68308,-8.97037 -24.07755,-12.41457"
             id="path8777"
             style="fill:#008f4c;fill-opacity:1;fill-rule:evenodd;stroke:#000000;stroke-width:0.98735827;stroke-linecap:butt;stroke-miterlimit:4;stroke-dasharray:none" />
          <path
             inkscape:connector-curvature="0"
             d="m 436.14793,576.39891 c 9.4051,-2.18192 11.07131,-4.49932 14.96511,-11.10551 7.83411,-3.26415 5.11144,-14.86445 6.00087,-18.27869 6.82797,-7.22859 4.90185,-17.17453 3.63504,-18.77377 -0.48074,-1.40619 -7.92659,-6.86357 -15.82689,-4.75273 -5.98165,-3.79709 -16.91897,-2.07028 -19.56718,0.69796 -12.3661,-1.78553 -13.92225,1.40831 -19.35165,6.72584 -13.96004,10.88848 -4.36156,26.37036 4.62302,31.28514 4.33471,12.16689 14.68447,24.30049 25.52168,14.20176 z"
             id="path8799"
             style="fill:#008f4c;fill-opacity:1;fill-rule:evenodd;stroke:#000000;stroke-width:0.98735827;stroke-linecap:butt;stroke-miterlimit:4;stroke-dasharray:none" />
          <path
             inkscape:connector-curvature="0"
             d="m 409.31335,561.24908 c 5.21382,1.20153 10.74684,-2.73405 14.38654,-6.80336 6.481,-1.21121 19.18434,-11.29887 22.04248,-15.10827"
             id="path8801"
             style="fill:#008f4c;fill-opacity:1;fill-rule:evenodd;stroke:#000000;stroke-width:0.98735827;stroke-linecap:butt;stroke-miterlimit:4;stroke-dasharray:none" />
          <path
             inkscape:connector-curvature="0"
             d="m 348.16277,520.45384 c -3.48559,-8.97232 -2.50146,-11.64902 0.786,-18.57462 -1.70333,-8.28817 9.45211,-12.57791 11.78343,-15.23261 2.15168,-9.69191 11.48634,-13.70603 13.52618,-13.56343 1.43712,-0.39593 10.15636,2.66196 12.85365,10.35527 6.51763,2.78713 11.24343,12.76479 10.43824,16.50387 8.44376,9.17645 6.67065,12.256 5.31675,19.72037 -1.17188,17.62489 -19.4185,18.43885 -28.55403,13.80853 -12.53308,3.28146 -28.4253,1.59162 -26.15022,-13.01738 z"
             id="path8781"
             style="fill:#008f4c;fill-opacity:1;fill-rule:evenodd;stroke:#000000;stroke-width:0.98735827;stroke-linecap:butt;stroke-miterlimit:4;stroke-dasharray:none" />
          <path
             inkscape:connector-curvature="0"
             d="m 375.83864,534.0184 c -3.93229,-3.61635 -3.78306,-10.38794 -2.45687,-15.67594 -2.6444,-6.01818 -1.42922,-22.15744 0.12142,-26.65558"
             id="path8783"
             style="fill:#008f4c;fill-opacity:1;fill-rule:evenodd;stroke:#000000;stroke-width:0.98735827;stroke-linecap:butt;stroke-miterlimit:4;stroke-dasharray:none" />
        </g>
      </g>
      <g
         id="g9967"
         style="fill:#000000">
        <g
           id="g9662"
           transform="translate(25)"
           style="fill:#000000">
          <path
             inkscape:connector-curvature="0"
             id="path9511"
             style="font-style:normal;font-variant:normal;font-weight:normal;font-stretch:normal;font-size:medium;line-height:27.1771431px;font-family:Arial;-inkscape-font-specification:Arial;font-variant-ligatures:normal;font-variant-caps:normal;font-variant-numeric:normal;font-feature-settings:normal;text-align:center;letter-spacing:0px;word-spacing:0px;writing-mode:lr-tb;text-anchor:middle;fill:#000000;fill-opacity:1;stroke:#000000;stroke-width:0.5;stroke-miterlimit:4;stroke-dasharray:none"
             d="M 72.125001,769.9884 H 66.5 v -35.84375 q -2.03125,1.9375 -5.34375,3.875 -3.28125,1.9375 -5.90625,2.90625 v -5.4375 q 4.71875,-2.21875 8.25,-5.37499 3.53125,-3.15626 5,-6.125 h 3.625001 z" />
          <path
             inkscape:connector-curvature="0"
             id="path9513"
             style="font-style:normal;font-variant:normal;font-weight:normal;font-stretch:normal;font-size:medium;line-height:27.1771431px;font-family:Arial;-inkscape-font-specification:Arial;font-variant-ligatures:normal;font-variant-caps:normal;font-variant-numeric:normal;font-feature-settings:normal;text-align:center;letter-spacing:0px;word-spacing:0px;writing-mode:lr-tb;text-anchor:middle;fill:#000000;fill-opacity:1;stroke:#000000;stroke-width:0.5;stroke-miterlimit:4;stroke-dasharray:none"
             d="m 95.21875,745.14466 q -3.5,-1.28125 -5.1875,-3.65626 -1.6875,-2.375 -1.6875,-5.6875 0,-5 3.59375,-8.40625 3.59375,-3.40624 9.5625,-3.40624 6,0 9.65625,3.5 3.65625,3.46875 3.65625,8.46874 0,3.1875 -1.6875,5.5625 -1.65625,2.34376 -5.0625,3.62501 4.21875,1.37499 6.40625,4.43749 2.21875,3.0625 2.21875,7.3125 0,5.875 -4.15625,9.875 -4.15625,4 -10.9375,4 -6.78125,0 -10.9375,-4 Q 86.5,762.7384 86.5,756.73841 q 0,-4.46876 2.25,-7.46876 2.28125,-3.03124 6.46875,-4.12499 z m -1.125,-9.53126 q 0,3.25 2.09375,5.3125 2.09375,2.06251 5.4375,2.06251 3.25,0 5.3125,-2.03126 2.09375,-2.0625 2.09375,-5.03125 0,-3.09375 -2.15625,-5.18749 -2.125,-2.12501 -5.3125,-2.12501 -3.21875,0 -5.34375,2.0625 -2.125,2.06251 -2.125,4.9375 z m -1.8125,21.15626 q 0,2.40625 1.125,4.65624 1.15625,2.25 3.40625,3.5 2.25,1.21876 4.84375,1.21876 4.03125,0 6.65625,-2.59375 2.625,-2.59376 2.625,-6.59375 0,-4.06251 -2.71875,-6.71876 -2.6875,-2.65624 -6.75,-2.65624 -3.96875,0 -6.59375,2.625 -2.59375,2.625 -2.59375,6.5625 z" />
          <path
             inkscape:connector-curvature="0"
             id="path9515"
             style="font-style:normal;font-variant:normal;font-weight:normal;font-stretch:normal;font-size:medium;line-height:27.1771431px;font-family:Arial;-inkscape-font-specification:Arial;font-variant-ligatures:normal;font-variant-caps:normal;font-variant-numeric:normal;font-feature-settings:normal;text-align:center;letter-spacing:0px;word-spacing:0px;writing-mode:lr-tb;text-anchor:middle;fill:#000000;fill-opacity:1;stroke:#000000;stroke-width:0.5;stroke-miterlimit:4;stroke-dasharray:none"
             d="m 122.5625,730.1759 v -5.40625 h 29.65625 v 4.375 q -4.375,4.65626 -8.6875,12.375 -4.28125,7.71875 -6.625,15.87501 -1.6875,5.74999 -2.15625,12.59374 h -5.78125 q 0.0937,-5.40625 2.125,-13.0625 2.03125,-7.65625 5.8125,-14.75 3.8125,-7.125 8.09375,-12 z" />
          <path
             inkscape:connector-curvature="0"
             id="path9517"
             style="font-style:normal;font-variant:normal;font-weight:normal;font-stretch:normal;font-size:medium;line-height:27.1771431px;font-family:Arial;-inkscape-font-specification:Arial;font-variant-ligatures:normal;font-variant-caps:normal;font-variant-numeric:normal;font-feature-settings:normal;text-align:center;letter-spacing:0px;word-spacing:0px;writing-mode:lr-tb;text-anchor:middle;fill:#000000;fill-opacity:1;stroke:#000000;stroke-width:0.5;stroke-miterlimit:4;stroke-dasharray:none"
             d="m 166.46875,745.14466 q -3.5,-1.28125 -5.1875,-3.65626 -1.68751,-2.375 -1.68751,-5.6875 0,-5 3.59376,-8.40625 3.59374,-3.40624 9.5625,-3.40624 6,0 9.65625,3.5 3.65624,3.46875 3.65624,8.46874 0,3.1875 -1.68749,5.5625 -1.65625,2.34376 -5.0625,3.62501 4.21875,1.37499 6.40625,4.43749 2.21875,3.0625 2.21875,7.3125 0,5.875 -4.15625,9.875 -4.15625,4 -10.9375,4 -6.78125,0 -10.9375,-4 -4.15625,-4.03125 -4.15625,-10.03124 0,-4.46876 2.24999,-7.46876 2.28126,-3.03124 6.46876,-4.12499 z m -1.125,-9.53126 q 0,3.25 2.09374,5.3125 2.09376,2.06251 5.43751,2.06251 3.25,0 5.31249,-2.03126 2.09376,-2.0625 2.09376,-5.03125 0,-3.09375 -2.15625,-5.18749 -2.12501,-2.12501 -5.3125,-2.12501 -3.21875,0 -5.34376,2.0625 -2.12499,2.06251 -2.12499,4.9375 z m -1.81251,21.15626 q 0,2.40625 1.12501,4.65624 1.15625,2.25 3.40625,3.5 2.24999,1.21876 4.84374,1.21876 4.03126,0 6.65626,-2.59375 2.625,-2.59376 2.625,-6.59375 0,-4.06251 -2.71876,-6.71876 -2.68749,-2.65624 -6.75,-2.65624 -3.96875,0 -6.59375,2.625 -2.59375,2.625 -2.59375,6.5625 z" />
        </g>
        <g
           id="g9668"
           transform="translate(-25)"
           style="fill:#000000">
          <path
             inkscape:connector-curvature="0"
             id="path9520"
             style="font-style:normal;font-variant:normal;font-weight:normal;font-stretch:normal;font-size:medium;line-height:27.1771431px;font-family:Arial;-inkscape-font-specification:Arial;font-variant-ligatures:normal;font-variant-caps:normal;font-variant-numeric:normal;font-feature-settings:normal;text-align:center;letter-spacing:0px;word-spacing:0px;writing-mode:lr-tb;text-anchor:middle;fill:#000000;fill-opacity:1;stroke:#000000;stroke-width:0.5;stroke-miterlimit:4;stroke-dasharray:none"
             d="m 579.063,769.98841 h -5.625 v -35.84375 q -2.03125,1.9375 -5.34375,3.875 -3.28125,1.93751 -5.90625,2.90625 v -5.4375 q 4.71875,-2.21875 8.25,-5.37499 3.53125,-3.15626 5,-6.125 h 3.625 z" />
          <path
             inkscape:connector-curvature="0"
             id="path9522"
             style="font-style:normal;font-variant:normal;font-weight:normal;font-stretch:normal;font-size:medium;line-height:27.1771431px;font-family:Arial;-inkscape-font-specification:Arial;font-variant-ligatures:normal;font-variant-caps:normal;font-variant-numeric:normal;font-feature-settings:normal;text-align:center;letter-spacing:0px;word-spacing:0px;writing-mode:lr-tb;text-anchor:middle;fill:#000000;fill-opacity:1;stroke:#000000;stroke-width:0.5;stroke-miterlimit:4;stroke-dasharray:none"
             d="m 602.15675,745.14466 q -3.5,-1.28125 -5.1875,-3.65625 -1.6875,-2.375 -1.6875,-5.68749 0,-5.00001 3.59375,-8.40626 3.59375,-3.40624 9.5625,-3.40624 6,0 9.65625,3.5 3.65625,3.46874 3.65625,8.46874 0,3.1875 -1.6875,5.5625 -1.65625,2.34375 -5.0625,3.625 4.21875,1.375 6.40625,4.4375 2.21875,3.0625 2.21875,7.3125 0,5.875 -4.15625,9.875 -4.15625,4 -10.9375,4 -6.78125,0 -10.9375,-4 -4.15625,-4.03125 -4.15625,-10.03125 0,-4.46875 2.25,-7.46875 2.28125,-3.03125 6.46875,-4.125 z m -1.125,-9.53125 q 0,3.25001 2.09375,5.3125 2.09375,2.0625 5.4375,2.0625 3.25,0 5.3125,-2.03125 2.09375,-2.0625 2.09375,-5.03125 0,-3.09375 -2.15625,-5.1875 -2.125,-2.125 -5.3125,-2.125 -3.21875,0 -5.34375,2.0625 -2.125,2.06251 -2.125,4.9375 z m -1.8125,21.15625 q 0,2.40625 1.125,4.65625 1.15625,2.25 3.40625,3.5 2.25,1.21875 4.84375,1.21875 4.03125,0 6.65625,-2.59375 2.625,-2.59375 2.625,-6.59375 0,-4.0625 -2.71875,-6.71875 -2.6875,-2.65625 -6.75,-2.65625 -3.96875,0 -6.59375,2.625 -2.59375,2.625 -2.59375,6.5625 z" />
          <path
             inkscape:connector-curvature="0"
             id="path9524"
             style="font-style:normal;font-variant:normal;font-weight:normal;font-stretch:normal;font-size:medium;line-height:27.1771431px;font-family:Arial;-inkscape-font-specification:Arial;font-variant-ligatures:normal;font-variant-caps:normal;font-variant-numeric:normal;font-feature-settings:normal;text-align:center;letter-spacing:0px;word-spacing:0px;writing-mode:lr-tb;text-anchor:middle;fill:#000000;fill-opacity:1;stroke:#000000;stroke-width:0.5;stroke-miterlimit:4;stroke-dasharray:none"
             d="m 629.96925,759.39466 5.40625,-0.5 q 0.6875,3.8125 2.625,5.53125 1.9375,1.71875 4.96875,1.71875 2.59375,0 4.53125,-1.1875 1.96875,-1.1875 3.21875,-3.15625 1.25,-2 2.09375,-5.375 0.84375,-3.375 0.84375,-6.875 0,-0.375 -0.0313,-1.125 -1.68751,2.6875 -4.625,4.375 -2.90626,1.65625 -6.3125,1.65625 -5.68751,0 -9.62501,-4.125 -3.9375,-4.125 -3.9375,-10.875 0,-6.96875 4.09375,-11.21875 4.125,-4.24999 10.31251,-4.24999 4.46874,0 8.15625,2.40625 3.71875,2.40625 5.625,6.87499 1.93749,4.4375 1.93749,12.875 0,8.78125 -1.90624,14 -1.90626,5.1875 -5.6875,7.90625 -3.75,2.71875 -8.81251,2.71875 -5.375,0 -8.78125,-2.96875 -3.40625,-3 -4.09375,-8.40625 z m 23.03125,-20.21875 q 0,-4.84375 -2.59375,-7.6875 -2.5625,-2.84375 -6.1875,-2.84375 -3.74999,0 -6.53125,3.0625 -2.78125,3.0625 -2.78125,7.9375 0,4.375 2.625,7.125 2.65625,2.71875 6.53125,2.71875 3.90625,0 6.40625,-2.71875 2.53125,-2.75 2.53125,-7.59375 z" />
          <path
             inkscape:connector-curvature="0"
             id="path9526"
             style="font-style:normal;font-variant:normal;font-weight:normal;font-stretch:normal;font-size:medium;line-height:27.1771431px;font-family:Arial;-inkscape-font-specification:Arial;font-variant-ligatures:normal;font-variant-caps:normal;font-variant-numeric:normal;font-feature-settings:normal;text-align:center;letter-spacing:0px;word-spacing:0px;writing-mode:lr-tb;text-anchor:middle;fill:#000000;fill-opacity:1;stroke:#000000;stroke-width:0.5;stroke-miterlimit:4;stroke-dasharray:none"
             d="m 693.938,735.39466 -5.59375,0.4375 q -0.75,-3.31249 -2.125,-4.8125 -2.28125,-2.40625 -5.625,-2.40625 -2.6875,0 -4.71875,1.50001 -2.65625,1.93749 -4.1875,5.65624 -1.53125,3.71875 -1.59375,10.59375 2.03125,-3.09375 4.96875,-4.59375 2.9375,-1.5 6.15624,-1.5 5.62501,0 9.56251,4.15625 3.96875,4.125 3.96875,10.6875 0,4.3125 -1.875,8.03125 -1.84375,3.6875 -5.09376,5.65625 -3.24999,1.96875 -7.37499,1.96875 -7.03125,0 -11.46875,-5.15625 -4.4375,-5.1875 -4.4375,-17.0625 0,-13.28125 4.90624,-19.31249 4.28126,-5.25 11.53126,-5.25 5.40625,0 8.84375,3.03124 3.46874,3.03125 4.15625,8.375 z m -22.96875,19.75 q 0,2.90625 1.21875,5.5625 1.25,2.65625 3.46875,4.0625 2.21875,1.375 4.65625,1.375 3.5625,0 6.125,-2.875 2.5625,-2.875 2.5625,-7.8125 0,-4.75 -2.53126,-7.46875 -2.53124,-2.75 -6.37499,-2.75 -3.8125,0 -6.46875,2.75 -2.65625,2.71875 -2.65625,7.15625 z" />
        </g>
        <g
           aria-label="PRODUZIR É EVOLUIR"
           style="font-style:normal;font-variant:normal;font-weight:normal;font-stretch:normal;font-size:74.66666412px;line-height:25px;font-family:Arial;-inkscape-font-specification:Arial;font-variant-ligatures:normal;font-variant-caps:normal;font-variant-numeric:normal;font-feature-settings:normal;text-align:center;letter-spacing:0px;word-spacing:0px;writing-mode:lr-tb;text-anchor:middle;fill:#000000;fill-opacity:1;stroke:#000000;stroke-width:0.5;stroke-miterlimit:4;stroke-dasharray:none"
           id="text9700">
          <path
             d="m 83.35237,676.42664 -51.017406,-15.93436 6.010711,-19.24463 q 1.586915,-5.08086 2.911055,-7.60832 1.80029,-3.5628 4.368568,-5.54889 2.533478,-1.99697 6.178564,-2.53908 3.655955,-0.57692 7.4492,0.60783 6.507677,2.03256 9.738287,7.58681 3.195809,5.54339 -0.184537,16.36632 l -4.086849,13.08495 20.741047,6.47809 z m -24.652878,-15.10975 4.119457,-13.18936 q 2.043424,-6.54248 0.466068,-10.05256 -1.577356,-3.51008 -5.997008,-4.89048 -3.201638,-0.99997 -5.974521,-0.0709 -2.796814,0.88345 -4.353688,3.30003 -0.985,1.56392 -2.419745,6.15757 l -4.07598,13.05016 z"
             style="font-size:74.66666412px;fill:#000000;stroke:#000000;stroke-width:0.5;stroke-miterlimit:4;stroke-dasharray:none"
             id="path9793"
             inkscape:connector-curvature="0" />
          <path
             d="M 99.090019,628.91665 51.610499,604.37333 62.492601,583.3217 q 3.281372,-6.34787 6.28451,-8.98169 2.970751,-2.65056 7.230706,-2.95201 4.259956,-0.30144 8.178797,1.7243 5.052391,2.61171 6.826902,7.67417 1.774511,5.06246 -0.81876,12.38165 2.487434,-1.87437 4.323038,-2.56715 3.949239,-1.44705 9.010906,-1.9497 l 17.19159,-1.57878 -4.08497,7.90246 -13.12597,1.17689 q -5.698139,0.543 -8.886031,1.15237 -3.187892,0.60937 -4.831366,1.56564 -1.626732,0.92388 -2.736367,2.19714 -0.779186,0.95158 -2.034813,3.38062 l -3.766881,7.2871 21.084018,10.89884 z m -23.277163,-19.99454 6.981286,-13.50543 q 2.226646,-4.30749 2.607821,-7.18855 0.348787,-2.8978 -0.941514,-5.1654 -1.322688,-2.28434 -3.622174,-3.473 -3.36826,-1.74114 -6.810566,-0.40141 -3.425564,1.30734 -6.154461,6.58644 l -7.768146,15.02762 z"
             style="font-size:74.66666412px;fill:#000000;stroke:#000000;stroke-width:0.5;stroke-miterlimit:4;stroke-dasharray:none"
             id="path9795"
             inkscape:connector-curvature="0" />
          <path
             d="m 102.8305,567.07993 q -10.480561,-8.20012 -11.992265,-18.45605 -1.540417,-10.27839 5.424067,-19.17968 4.560618,-5.82892 11.007828,-8.33006 6.44721,-2.50115 13.35304,-1.03273 6.89958,1.41724 13.21663,6.35977 6.40319,5.00994 9.43488,11.54821 3.03169,6.53828 1.93775,13.32048 -1.12266,6.75973 -5.41368,12.24408 -4.65047,5.94377 -11.18383,8.37752 -6.53336,2.43375 -13.388,0.95908 -6.85465,-1.47467 -12.39642,-5.81062 z m 4.57935,-5.67537 q 7.60917,5.95351 15.19258,5.31345 7.57715,-0.69124 12.40736,-6.86472 4.92007,-6.28833 3.66585,-13.79676 -1.23175,-7.53714 -9.35777,-13.89504 -5.13978,-4.02143 -10.32915,-5.25787 -5.19563,-1.28763 -9.92027,0.43187 -4.73089,1.66832 -7.98847,5.83183 -4.62801,5.91505 -3.898088,13.3836 0.723674,7.41737 10.227958,14.85364 z"
             style="font-size:74.66666412px;fill:#000000;stroke:#000000;stroke-width:0.5;stroke-miterlimit:4;stroke-dasharray:none"
             id="path9797"
             inkscape:connector-curvature="0" />
          <path
             d="m 161.45124,536.46275 -35.27923,-40.15041 13.8308,-12.15281 q 4.68331,-4.1151 7.65357,-5.70581 4.14873,-2.23794 8.41518,-2.29825 5.53534,-0.10754 10.77838,2.71108 5.24636,2.76717 9.96309,8.13516 4.01885,4.57376 6.05511,9.04531 2.03626,4.47155 2.41113,8.26747 0.3508,3.76853 -0.46932,6.86727 -0.8168,3.04729 -3.03611,6.21067 -2.19192,3.13932 -5.83449,6.33996 z m 1.14998,-9.40668 8.57236,-7.53233 q 3.97122,-3.48942 5.56726,-6.20221 1.62343,-2.73686 1.78624,-5.25805 0.22928,-3.55023 -1.52153,-7.64168 -1.74747,-4.14289 -5.74226,-8.68926 -5.53494,-6.29918 -10.57639,-7.83893 -5.03814,-1.59121 -9.00674,-0.14248 -2.85819,1.05544 -7.59627,5.21868 l -8.43542,7.412 z"
             style="font-size:74.66666412px;fill:#000000;stroke:#000000;stroke-width:0.5;stroke-miterlimit:4;stroke-dasharray:none"
             id="path9799"
             inkscape:connector-curvature="0" />
          <path
             d="m 205.22892,437.71135 6.06185,-3.64419 15.91045,26.46592 q 4.15137,6.90551 5.03102,11.9068 0.87965,5.00129 -1.67334,10.02428 -2.54052,4.97296 -9.16481,8.95527 -6.43681,3.8696 -11.86382,4.11185 -5.42701,0.24226 -9.69394,-2.89287 -4.28572,-3.16636 -8.6625,-10.44683 l -15.91045,-26.46592 6.06185,-3.64419 15.89166,26.43467 q 3.58784,5.96811 6.39086,8.1541 2.81548,2.13596 6.42313,2.05158 3.6389,-0.10316 7.54473,-2.45122 6.68679,-4.01988 7.70814,-8.76019 1.02135,-4.74031 -4.16317,-13.36439 z"
             style="font-size:74.66666412px;fill:#000000;stroke:#000000;stroke-width:0.5;stroke-miterlimit:4;stroke-dasharray:none"
             id="path9801"
             inkscape:connector-curvature="0" />
          <path
             d="m 245.6608,476.46346 -2.3999,-6.10794 12.96424,-41.87597 q 1.38136,-4.45992 2.83792,-7.93092 l -27.75719,10.90619 -2.30657,-5.87041 35.62965,-13.99938 2.30656,5.87041 -14.36745,45.4827 -1.64677,4.68171 31.76128,-12.47944 2.30657,5.8704 z"
             style="font-size:74.66666412px;fill:#000000;stroke:#000000;stroke-width:0.5;stroke-miterlimit:4;stroke-dasharray:none"
             id="path9803"
             inkscape:connector-curvature="0" />
          <path
             d="m 293.72848,459.15772 -13.88395,-51.61313 6.83012,-1.8373 13.88394,51.61313 z"
             style="font-size:74.66666412px;fill:#000000;stroke:#000000;stroke-width:0.5;stroke-miterlimit:4;stroke-dasharray:none"
             id="path9805"
             inkscape:connector-curvature="0" />
          <path
             d="m 312.65767,453.75874 -7.33371,-52.94239 23.47377,-3.25164 q 7.07825,-0.9805 10.96192,-0.0462 3.87868,0.89817 6.58186,4.20437 2.70317,3.30619 3.30848,7.67593 0.78039,5.6337 -2.3318,10.0031 -3.11219,4.3694 -10.58706,6.47223 2.96583,0.951 4.59046,2.05099 3.45984,2.39163 6.78977,6.23672 l 11.20495,13.13364 -8.81169,1.22062 -8.5318,-10.04413 q -3.72998,-4.34176 -6.0664,-6.59457 -2.33642,-2.25281 -4.06548,-3.04387 -1.69295,-0.79607 -3.37309,-0.96821 -1.22676,-0.0877 -3.93527,0.28748 l -8.12554,1.12557 3.25665,23.50989 z m 2.90895,-30.54744 15.05932,-2.08606 q 4.8031,-0.66534 7.37654,-2.01559 2.56844,-1.38637 3.67672,-3.74828 1.10327,-2.39802 0.74809,-4.96208 -0.52026,-3.7558 -3.60006,-5.79521 -3.04368,-2.04442 -8.93018,-1.22901 l -16.75666,2.32118 z"
             style="font-size:74.66666412px;fill:#000000;stroke:#000000;stroke-width:0.5;stroke-miterlimit:4;stroke-dasharray:none"
             id="path9807"
             inkscape:connector-curvature="0" />
          <path
             d="m 387.07757,447.65529 5.4768,-53.16657 38.44241,3.96004 -0.64631,6.27409 -31.40672,-3.23528 -1.67741,16.28363 29.41206,3.0298 -0.64257,6.23782 -29.41206,-3.0298 -1.86421,18.09694 32.63978,3.3623 -0.64631,6.27409 z m 20.3196,-54.93619 5.86948,-9.65773 8.55888,0.88167 -9.02466,9.33271 z"
             style="font-size:74.66666412px;fill:#000000;stroke:#000000;stroke-width:0.5;stroke-miterlimit:4;stroke-dasharray:none"
             id="path9809"
             inkscape:connector-curvature="0" />
          <path
             d="m 456.77262,458.68684 17.78988,-50.40039 36.44231,12.86308 -2.09936,5.94766 -29.77267,-10.5089 -5.44861,15.43641 27.88181,9.84147 -2.08722,5.91328 -27.8818,-9.84147 -6.05536,17.15539 30.94158,10.92148 -2.09935,5.94766 z"
             style="font-size:74.66666412px;fill:#000000;stroke:#000000;stroke-width:0.5;stroke-miterlimit:4;stroke-dasharray:none"
             id="path9811"
             inkscape:connector-curvature="0" />
          <path
             d="m 516.73156,483.58321 7.83033,-56.78204 6.69434,3.71538 -6.69687,40.69059 q -0.79823,4.89421 -1.79156,9.01298 3.20692,-3.2238 6.7645,-6.25298 l 31.46589,-26.94368 6.3118,3.50307 -44.23475,36.57745 z"
             style="font-size:74.66666412px;fill:#000000;stroke:#000000;stroke-width:0.5;stroke-miterlimit:4;stroke-dasharray:none"
             id="path9813"
             inkscape:connector-curvature="0" />
          <path
             d="m 561.56,479.51635 q 8.43469,-10.29271 18.72214,-11.57243 10.31056,-1.30793 19.05231,5.85579 5.72445,4.69107 8.07937,11.19312 2.35492,6.50205 0.73093,13.37296 -1.57268,6.86582 -6.6566,13.06964 -5.15326,6.28843 -11.75833,9.1717 -6.60506,2.88327 -13.36083,1.63646 -6.73266,-1.27501 -12.11871,-5.68879 -5.83724,-4.78351 -8.12283,-11.37016 -2.2856,-6.58664 -0.65652,-13.40624 1.62908,-6.8196 6.08907,-12.26205 z m 5.57052,4.70635 q -6.12382,7.47279 -5.65517,15.06871 0.51995,7.59083 6.58278,12.55922 6.17563,5.06081 13.71047,3.97647 7.56304,-1.06124 14.10281,-9.04162 4.13647,-5.04766 5.48978,-10.20779 1.40462,-5.16522 -0.20775,-9.92748 -1.56106,-4.76736 -5.64995,-8.11813 -5.80904,-4.7604 -13.29216,-4.19931 -7.43182,0.55599 -15.08081,9.88993 z"
             style="font-size:74.66666412px;fill:#000000;stroke:#000000;stroke-width:0.5;stroke-miterlimit:4;stroke-dasharray:none"
             id="path9815"
             inkscape:connector-curvature="0" />
          <path
             d="m 590.37095,538.83578 40.21982,-35.20007 4.65813,5.3224 -35.47356,31.04618 17.33592,19.80813 -4.74627,4.15389 z"
             style="font-size:74.66666412px;fill:#000000;stroke:#000000;stroke-width:0.5;stroke-miterlimit:4;stroke-dasharray:none"
             id="path9817"
             inkscape:connector-curvature="0" />
          <path
             d="m 681.57467,571.98728 3.75692,5.99263 -26.16372,16.40266 q -6.82666,4.27979 -11.81062,5.25282 -4.98396,0.97304 -10.05382,-1.48556 -5.01961,-2.44707 -9.12511,-8.99572 -3.98932,-6.36331 -4.33303,-11.78484 -0.34371,-5.42153 2.71106,-9.74635 3.08566,-4.34419 10.283,-8.85637 l 26.16372,-16.40266 3.75692,5.99264 -26.13283,16.38329 q -5.89996,3.69882 -8.03314,6.54224 -2.08293,2.85494 -1.93109,6.46038 0.1712,3.63633 2.5919,7.49756 4.14423,6.61044 8.90282,7.54295 4.75858,0.93252 13.28419,-4.41238 z"
             style="font-size:74.66666412px;fill:#000000;stroke:#000000;stroke-width:0.5;stroke-miterlimit:4;stroke-dasharray:none"
             id="path9819"
             inkscape:connector-curvature="0" />
          <path
             d="m 645.31137,618.34843 48.46807,-22.52835 2.98124,6.41391 -48.46806,22.52835 z"
             style="font-size:74.66666412px;fill:#000000;stroke:#000000;stroke-width:0.5;stroke-miterlimit:4;stroke-dasharray:none"
             id="path9821"
             inkscape:connector-curvature="0" />
          <path
             d="m 653.8835,636.06911 50.90677,-16.28435 7.22021,22.57121 q 2.17717,6.80609 1.92119,10.79236 -0.22125,3.97515 -3.01616,7.20418 -2.7949,3.22902 -6.99662,4.57309 -5.41709,1.73285 -10.25457,-0.58581 -4.83748,-2.31866 -8.1883,-9.32349 -0.4295,3.08481 -1.23528,4.8737 -1.76437,3.81805 -4.98297,7.75678 l -11.02271,13.28696 -2.71036,-8.47289 8.43615,-10.12458 q 3.63951,-4.41788 5.45932,-7.10531 1.81981,-2.68744 2.30335,-4.52636 0.49465,-1.8042 0.37677,-3.48901 -0.12349,-1.22368 -0.95659,-3.82805 l -2.49931,-7.81311 -22.60594,7.23132 z m 30.59468,-2.36083 4.63205,14.48031 q 1.47736,4.61841 3.24804,6.92287 1.8054,2.29334 4.32211,2.98114 2.55143,0.67668 5.0169,-0.11199 3.6114,-1.15523 5.09376,-4.53857 1.49347,-3.3486 -0.31714,-9.00877 l -5.15412,-16.11238 z"
             style="font-size:74.66666412px;fill:#000000;stroke:#000000;stroke-width:0.5;stroke-miterlimit:4;stroke-dasharray:none"
             id="path9823"
             inkscape:connector-curvature="0" />
        </g>
        <g
           aria-label="MANICORÉ"
           style="font-style:normal;font-variant:normal;font-weight:normal;font-stretch:normal;font-size:74.66666412px;line-height:25px;font-family:Arial;-inkscape-font-specification:Arial;font-variant-ligatures:normal;font-variant-caps:normal;font-variant-numeric:normal;font-feature-settings:normal;text-align:center;letter-spacing:0px;word-spacing:0px;writing-mode:lr-tb;text-anchor:middle;fill:#000000;fill-opacity:1;stroke:#000000;stroke-width:0.5;stroke-miterlimit:4;stroke-dasharray:none"
           id="text9855"
           transform="translate(15,-17)">
          <path
             d="m 13.428597,844.76937 50.591531,-17.23881 3.433651,10.07689 -31.740887,24.18087 q -4.439502,3.36154 -6.665516,4.96741 3.05477,-0.078 9.027038,-0.0716 l 39.327547,0.11872 3.06912,9.00709 -50.591531,17.23881 -2.198948,-6.45336 42.343662,-14.42839 -47.35303,-0.27283 -2.057839,-6.03923 38.08252,-29.30754 -43.06837,14.67533 z"
             id="path9860"
             inkscape:connector-curvature="0"
             style="fill:#000000;stroke:#000000;stroke-width:0.5;stroke-miterlimit:4;stroke-dasharray:none" />
          <path
             d="m 32.100588,898.29755 56.920681,-6.16718 3.482091,6.77763 -37.544259,43.88193 -3.68202,-7.16677 11.549425,-12.9427 -10.213023,-19.87888 -17.080786,2.17631 z m 26.569654,3.68765 8.280379,16.11714 10.617022,-11.72587 q 4.833087,-5.35226 8.125655,-8.43746 -5.038968,1.44115 -10.396275,2.10312 z"
             id="path9862"
             inkscape:connector-curvature="0"
             style="fill:#000000;stroke:#000000;stroke-width:0.5;stroke-miterlimit:4;stroke-dasharray:none" />
          <path
             d="m 58.124687,947.56103 43.701713,-30.77076 4.17693,5.93222 -18.149509,47.11287 34.311509,-24.15904 3.90407,5.54469 -43.701716,30.77077 -4.176932,-5.93222 18.17932,-47.13387 -34.341318,24.18003 z"
             id="path9864"
             inkscape:connector-curvature="0"
             style="fill:#000000;stroke:#000000;stroke-width:0.5;stroke-miterlimit:4;stroke-dasharray:none" />
          <path
             d="m 91.155661,991.79982 40.374189,-35.02291 4.63468,5.34283 -40.374187,35.02292 z"
             id="path9866"
             inkscape:connector-curvature="0"
             style="fill:#000000;stroke:#000000;stroke-width:0.5;stroke-miterlimit:4;stroke-dasharray:none" />
          <path
             d="m 144.39136,1019.207 3.92933,6.1464 q -7.58893,4.825 -14.95893,4.201 -7.31847,-0.6255 -13.40117,-6.3445 -6.29519,-5.9187 -7.85548,-12.1896 -1.50875,-6.2726 0.98955,-13.08139 2.52486,-6.78379 7.76927,-12.36181 5.71891,-6.08269 12.27529,-8.42554 6.6079,-2.34444 13.08204,-0.66118 6.52568,1.68167 11.6787,6.52651 5.84364,5.49415 7.03091,12.21511 1.18728,6.7209 -2.31516,13.5865 l -6.19715,-3.5747 q 2.64109,-5.52353 1.88763,-9.88497 -0.75345,-4.36145 -4.65806,-8.03254 -4.48898,-4.2205 -9.53989,-4.91595 -5.02435,-0.67048 -9.66756,1.81974 -4.61823,2.46365 -8.23938,6.31514 -4.67002,4.96709 -6.73195,10.03438 -2.0104,5.0656 -0.67893,9.7703 1.33146,4.7047 4.89077,8.0512 4.3296,4.0706 9.6786,4.3958 5.34901,0.3252 11.03157,-3.5899 z"
             id="path9868"
             inkscape:connector-curvature="0"
             style="fill:#000000;stroke:#000000;stroke-width:0.5;stroke-miterlimit:4;stroke-dasharray:none" />
          <path
             d="m 156.59204,1020.5291 q 7.53639,-10.9675 17.67922,-13.1105 10.16348,-2.173 19.47837,4.2278 6.09976,4.1915 8.99477,10.4717 2.89501,6.2802 1.8564,13.2636 -0.98791,6.974 -5.53039,13.5846 -4.60442,6.7007 -10.94273,10.1309 -6.33831,3.4302 -13.17517,2.7577 -6.81621,-0.7026 -12.55539,-4.6463 -6.21994,-4.274 -9.05301,-10.6444 -2.83307,-6.3704 -1.78507,-13.3031 1.04801,-6.9327 5.033,-12.732 z m 5.94767,4.2197 q -5.47162,7.9627 -4.36389,15.4921 1.15843,7.5199 7.61876,11.9591 6.58052,4.5219 13.99703,2.8058 7.44656,-1.6955 13.28984,-10.1991 3.69593,-5.3786 4.60913,-10.6345 0.96391,-5.2653 -1.04444,-9.8745 -1.95765,-4.6187 -6.31461,-7.6126 -6.1899,-4.2534 -13.59902,-3.0631 -7.35843,1.1809 -14.1928,11.1268 z"
             id="path9870"
             inkscape:connector-curvature="0"
             style="fill:#000000;stroke:#000000;stroke-width:0.5;stroke-miterlimit:4;stroke-dasharray:none" />
          <path
             d="m 192.17149,1075.2763 23.27654,-48.1133 21.3326,10.3205 q 6.4326,3.112 9.14508,6.0443 2.72835,2.8994 3.14257,7.1499 0.41423,4.2505 -1.50696,8.2216 -2.4769,5.1198 -7.49056,7.0279 -5.01366,1.908 -12.399,-0.4904 1.93962,2.4369 2.6808,4.2535 1.5512,3.9095 2.18779,8.9561 l 2.03379,17.1437 -8.00793,-3.8741 -1.5243,-13.0902 q -0.6938,-5.6818 -1.38744,-8.8524 -0.69364,-3.1706 -1.69312,-4.7882 -0.96666,-1.6016 -2.26888,-2.6771 -0.97189,-0.7537 -3.43335,-1.9446 l -7.38436,-3.5724 -10.33631,21.3654 z m 19.3707,-23.7989 13.68569,6.621 q 4.36498,2.1117 7.25513,2.4164 2.90602,0.2719 5.13863,-1.0781 2.24849,-1.3827 3.3758,-3.7129 1.65127,-3.4132 0.22079,-6.8188 -1.39765,-3.3897 -6.74721,-5.9778 l -15.2282,-7.3672 z"
             id="path9872"
             inkscape:connector-curvature="0"
             style="fill:#000000;stroke:#000000;stroke-width:0.5;stroke-miterlimit:4;stroke-dasharray:none" />
          <path
             d="m 241.21645,1097.9174 16.42419,-50.8619 36.77595,11.8757 -1.93819,6.0021 -30.04525,-9.7022 -5.03033,15.5778 28.13706,9.0859 -1.92698,5.9674 -28.13707,-9.0859 -5.5905,17.3124 31.22486,10.0831 -1.93819,6.0021 z m 31.31022,-49.503 7.75129,-8.2243 8.18785,2.644 -10.7697,7.2496 z"
             id="path9874"
             inkscape:connector-curvature="0"
             style="fill:#000000;stroke:#000000;stroke-width:0.5;stroke-miterlimit:4;stroke-dasharray:none" />
        </g>
        <g
           aria-label="AMAZONAS"
           style="font-style:normal;font-variant:normal;font-weight:normal;font-stretch:normal;font-size:74.66666412px;line-height:25px;font-family:Arial;-inkscape-font-specification:Arial;font-variant-ligatures:normal;font-variant-caps:normal;font-variant-numeric:normal;font-feature-settings:normal;text-align:center;letter-spacing:0px;word-spacing:0px;writing-mode:lr-tb;text-anchor:middle;fill:#000000;fill-opacity:1;stroke:#000000;stroke-width:0.5;stroke-miterlimit:4;stroke-dasharray:none"
           id="text9881"
           transform="translate(-16,-16)">
          <path
             d="m 458.69209,1113.2665 3.6734,-57.1359 7.27389,-2.2697 36.80282,44.5056 -7.69153,2.4 -10.77323,-13.5956 -21.33441,6.6573 -0.78147,17.2011 z m 8.18403,-25.5454 17.29724,-5.3975 -9.73409,-12.4685 q -4.44534,-5.6784 -6.921,-9.4508 0.55677,5.2114 0.29135,10.6029 z"
             style="fill:#000000;stroke:#000000;stroke-width:0.5;stroke-miterlimit:4;stroke-dasharray:none"
             id="path9886"
             inkscape:connector-curvature="0" />
          <path
             d="m 511.65736,1096.3782 -22.78333,-48.3487 9.63016,-4.538 27.5758,28.8405 q 3.8365,4.0361 5.68103,6.0688 -0.41879,-3.027 -1.07973,-8.9626 l -4.27599,-39.0945 8.60779,-4.0563 22.78333,48.3487 -6.16726,2.9062 -19.069,-40.4665 5.0195,47.0871 -5.7715,2.7197 -33.3789,-34.5697 19.39537,41.1591 z"
             style="fill:#000000;stroke:#000000;stroke-width:0.5;stroke-miterlimit:4;stroke-dasharray:none"
             id="path9888"
             inkscape:connector-curvature="0" />
          <path
             d="m 562.77353,1071.8702 -12.2145,-55.9358 6.36672,-4.1864 47.64269,32.64 -6.73227,4.4268 -14.10277,-10.1002 -18.67368,12.2788 3.98914,16.7504 z m 0.82725,-26.8116 15.14,-9.9553 -12.79328,-9.3032 q -5.83807,-4.2334 -9.25746,-7.1775 1.97137,4.8561 3.20204,10.112 z"
             style="fill:#000000;stroke:#000000;stroke-width:0.5;stroke-miterlimit:4;stroke-dasharray:none"
             id="path9890"
             inkscape:connector-curvature="0" />
          <path
             d="m 605.66672,1043.3206 -4.26986,-4.9834 -1.4824,-43.81177 q -0.15729,-4.6663 0.0807,-8.42299 l -22.64698,19.40416 -4.10381,-4.7897 29.07008,-24.90748 4.10381,4.78965 1.3393,47.67923 -0.0207,4.9628 25.9139,-22.2033 4.10381,4.7897 z"
             style="fill:#000000;stroke:#000000;stroke-width:0.5;stroke-miterlimit:4;stroke-dasharray:none"
             id="path9892"
             inkscape:connector-curvature="0" />
          <path
             d="m 622.36885,995.02949 q -10.02162,-8.75506 -10.97631,-19.07775 -0.98215,-10.34667 6.45366,-18.85818 4.86925,-5.57367 11.44233,-7.72239 6.57307,-2.14873 13.38935,-0.30888 6.81281,1.7884 12.85324,7.06542 6.1228,5.34898 8.79636,12.04169 2.67356,6.6927 1.21434,13.40579 -1.48668,6.68911 -6.0681,11.9333 -4.9652,5.68349 -11.62064,7.76021 -6.65545,2.0768 -13.42029,0.2335 -6.76483,-1.84332 -12.06394,-6.47271 z m 4.87967,-5.41934 q 7.27597,6.35642 14.88289,6.12752 7.60345,-0.28033 12.76054,-6.18348 5.25304,-6.01297 4.40683,-13.57826 -0.82222,-7.59273 -8.59241,-14.38091 -4.91471,-4.29357 -10.0296,-5.80893 -5.11836,-1.56679 -9.9291,-0.1054 -4.81421,1.40996 -8.29225,5.39115 -4.94121,5.65604 -4.61637,13.15314 0.32137,7.44565 9.40947,15.38517 z"
             style="fill:#000000;stroke:#000000;stroke-width:0.5;stroke-miterlimit:4;stroke-dasharray:none"
             id="path9894"
             inkscape:connector-curvature="0" />
          <path
             d="m 680.74372,966.1522 -45.32518,-28.32503 3.84494,-6.1526 50.46354,-1.56773 -35.58614,-22.23881 3.59376,-5.75067 45.32519,28.32502 -3.84494,6.1526 -50.49447,1.54841 35.61707,22.25814 z"
             style="fill:#000000;stroke:#000000;stroke-width:0.5;stroke-miterlimit:4;stroke-dasharray:none"
             id="path9896"
             inkscape:connector-curvature="0" />
          <path
             d="m 706.15999,925.15053 -40.70912,-40.25873 3.05942,-6.97863 57.73355,1.42554 -3.23508,7.37931 -17.32856,-0.78966 -8.97332,20.4684 12.46862,11.87532 z m -13.90907,-22.9365 7.27527,-16.5951 -15.79623,-0.83443 q -7.20193,-0.37076 -11.67311,-0.97745 4.29819,2.99895 8.19292,6.7366 z"
             style="fill:#000000;stroke:#000000;stroke-width:0.5;stroke-miterlimit:4;stroke-dasharray:none"
             id="path9898"
             inkscape:connector-curvature="0" />
          <path
             d="m 710.62985,871.28997 1.29333,-6.57126 q 3.9842,0.65895 6.94691,-0.26793 2.93782,-0.97203 5.49178,-4.02862 2.51894,-3.06672 3.78513,-7.44458 1.12437,-3.88754 0.82963,-7.19876 -0.29475,-3.31122 -1.87575,-5.32454 -1.60588,-2.05848 -3.98744,-2.74729 -2.41658,-0.69893 -4.60793,0.18538 -2.22637,0.87418 -4.38409,3.74175 -1.40316,1.83337 -5.13042,8.42178 -3.76229,6.57828 -6.08876,8.97957 -2.98986,3.12028 -6.35345,4.12098 -3.38848,0.95554 -6.92579,-0.0675 -3.88754,-1.12437 -6.61158,-4.30325 -2.75906,-3.189 -3.28454,-7.93325 -0.52547,-4.74425 0.9737,-9.92763 1.65111,-5.70873 4.76338,-9.51471 3.08738,-3.85113 7.33839,-5.16445 4.25102,-1.31332 8.81962,-0.18173 L 700.2282,832.72 q -5.02013,-0.88266 -8.38802,1.44514 -3.35776,2.29277 -5.06965,8.21164 -1.7828,6.16403 -0.3268,9.6593 1.43111,3.45012 4.61819,4.37191 2.76681,0.80023 5.13036,-0.67947 2.35342,-1.44468 6.63522,-9.16309 4.25691,-7.76356 6.54922,-10.44039 3.36293,-3.88529 7.16791,-5.0999 3.76996,-1.22474 7.90266,-0.0295 4.09768,1.18516 7.06138,4.58516 2.92868,3.38987 3.68369,8.39027 0.73012,4.95524 -0.86021,10.45384 -2.01578,6.96955 -5.41459,11.11013 -3.38868,4.10556 -8.23131,5.62729 -4.86752,1.47659 -10.0564,0.12764 z"
             style="fill:#000000;stroke:#000000;stroke-width:0.5;stroke-miterlimit:4;stroke-dasharray:none"
             id="path9900"
             inkscape:connector-curvature="0" />
        </g>
        <path
           sodipodi:type="star"
           style="opacity:1;vector-effect:none;fill:#000000;fill-opacity:1;fill-rule:evenodd;stroke:#000000;stroke-width:1.961043;stroke-linecap:butt;stroke-linejoin:miter;stroke-miterlimit:4;stroke-dasharray:none;stroke-dashoffset:0;stroke-opacity:1"
           id="path9903"
           sodipodi:sides="5"
           sodipodi:cx="-102"
           sodipodi:cy="766.51965"
           sodipodi:r1="134.18271"
           sodipodi:r2="50.318516"
           sodipodi:arg1="-1.5707963"
           sodipodi:arg2="-0.9424778"
           inkscape:flatsided="false"
           inkscape:rounded="0"
           inkscape:randomized="0"
           d="m -102,632.33694 29.576481,93.47418 98.03886,-0.7562 -79.759589,57.01401 31.014862,93.00682 L -102,816.83817 l -78.87062,58.23757 31.01487,-93.00681 -79.75959,-57.01402 98.03886,0.75621 z"
           inkscape:transform-center-y="-3.3499651"
           transform="matrix(0.24864866,0,0,0.26144458,63.862171,550.54836)" />
        <path
           sodipodi:type="star"
           style="opacity:1;vector-effect:none;fill:#000000;fill-opacity:1;fill-rule:evenodd;stroke:#000000;stroke-width:1.961043;stroke-linecap:butt;stroke-linejoin:miter;stroke-miterlimit:4;stroke-dasharray:none;stroke-dashoffset:0;stroke-opacity:1"
           id="path9903-9"
           sodipodi:sides="5"
           sodipodi:cx="-102"
           sodipodi:cy="766.51965"
           sodipodi:r1="134.18271"
           sodipodi:r2="50.318516"
           sodipodi:arg1="-1.5707963"
           sodipodi:arg2="-0.9424778"
           inkscape:flatsided="false"
           inkscape:rounded="0"
           inkscape:randomized="0"
           d="m -102,632.33694 29.576481,93.47418 98.03886,-0.7562 -79.759589,57.01401 31.014862,93.00682 L -102,816.83817 l -78.87062,58.23757 31.01487,-93.00681 -79.75959,-57.01402 98.03886,0.75621 z"
           inkscape:transform-center-y="-3.3499651"
           transform="matrix(0.24864866,0,0,0.26144458,736.86217,550.54836)" />
      </g>
      <circle
         r="373.5"
         cy="747.51965"
         cx="375"
         id="path7131-4"
         style="opacity:1;vector-effect:none;fill:none;fill-opacity:1;fill-rule:evenodd;stroke:#000000;stroke-width:3;stroke-linecap:butt;stroke-linejoin:miter;stroke-miterlimit:4;stroke-dasharray:none;stroke-dashoffset:0;stroke-opacity:1" />
    </g>
  </g>
</svg>
